# xmcd
#
# Track frame offsets:
#	150
#	11896
#	28691
#	40180
#	55307
#	68194
#	85798
#	97452
#	113561
#	129819
#	144825
#	162114
#	174491
#	187159
#	210344
#
# Disc length: 2972 seconds
#
# Revision: 1
# Processed by: cddbd v1.5.1PL0 Copyright (c) Steve Scherf et al.
# Submitted via: audiograbber 1.83.01
#
DISCID=c80b9a0f
DTITLE=Various Artist - CB60021
DYEAR=1900
DGENRE=Karaoke
TTITLE0=Merle Haggard - Working Man Blues
TTITLE1=Barbara Mandrell - I Was Country When Country Wasn't Cool
TTITLE2=Willie Nelson - On The Road Again
TTITLE3=Edie Rabbitt - I Love A Rainy Night
TTITLE4=Glenn Campbell - Galveston
TTITLE5=Billie Jo Spears - Blanket On The Ground
TTITLE6=Hank Locklin - Please Help Me I'm Falling
TTITLE7=Johnny Cash - A Boy Named Sue
TTITLE8=Ronnie Milsap - It Was Almost Like A Song
TTITLE9=Anne Murray - Could I Have This Dance
TTITLE10=Dan Seals - Bop
TTITLE11=Johnny Horton - Battle Of New Orleans
TTITLE12=Johnny Paycheck - Take This Job and Shove It
TTITLE13=Marty Robbins - El Paso
TTITLE14=Tammy Wynette - I Don't Wanna Play House
EXTD=
EXTT0=
EXTT1=
EXTT2=
EXTT3=
EXTT4=
EXTT5=
EXTT6=
EXTT7=
EXTT8=
EXTT9=
EXTT10=
EXTT11=
EXTT12=
EXTT13=
EXTT14=
PLAYORDER=
